<svg xmlns="http://www.w3.org/2000/svg" viewBox="0 0 731.43 404.55"><defs><style>.cls-1{fill:#c7efea;}.cls-2{fill:#fff;}</style></defs><title>雲</title><g id="圖層_2" data-name="圖層 2"><g id="圖層_1-2" data-name="圖層 1"><path class="cls-1" d="M676,171.47c0,.05,0,.1,0,.16s0,.1,0,.16c0,1.16-.06,2.31-.1,3.47,0,.58,0,1.18-.05,1.77a105.81,105.81,0,0,1-9.68,39.42h-.14a106.57,106.57,0,0,1-122.46,58.33,106.48,106.48,0,0,1-183.9,26.87,151.08,151.08,0,0,1-221.28-36.27A106.37,106.37,0,0,1,104,271.1c-40,0-77.34-20.77-93-54.65-9.24-20-19.17-49.72,0-89.65,17.89-37.24,53-54.65,93-54.65a106.37,106.37,0,0,1,34.44,5.72A151.08,151.08,0,0,1,359.71,41.6a106.48,106.48,0,0,1,183.9,26.87A106.57,106.57,0,0,1,666.07,126.8h.14a105.81,105.81,0,0,1,9.68,39.42c0,.59,0,1.19.05,1.78C676,169.15,676,170.3,676,171.47Z"/><path class="cls-2" d="M731.43,232.77v.32c0,1.16-.06,2.31-.09,3.46,0,.59,0,1.19-.05,1.78a106.2,106.2,0,0,1-9.68,39.42h-.14A106.58,106.58,0,0,1,599,336.08,106.48,106.48,0,0,1,415.1,363a151.08,151.08,0,0,1-221.28-36.27,106.31,106.31,0,0,1-34.43,5.72c-40,0-77.35-20.77-93-54.65-9.24-20-19.17-49.72,0-89.65,17.88-37.24,53-54.65,93-54.65a106.31,106.31,0,0,1,34.43,5.72A151.08,151.08,0,0,1,415.1,102.9,106.48,106.48,0,0,1,599,129.77,106.58,106.58,0,0,1,721.47,188.1h.14a106.2,106.2,0,0,1,9.68,39.42c0,.59,0,1.19.05,1.78C731.37,230.45,731.43,231.6,731.43,232.77Z"/></g></g></svg>