<?xml version="1.0" encoding="utf-8"?>
<!-- Generator: Adobe Illustrator 21.1.0, SVG Export Plug-In . SVG Version: 6.00 Build 0)  -->
<svg version="1.1" id="圖層_1" xmlns="http://www.w3.org/2000/svg" xmlns:xlink="http://www.w3.org/1999/xlink" x="0px" y="0px"
	 viewBox="0 0 1367.1 745" style="enable-background:new 0 0 1367.1 745;" xml:space="preserve">
<style type="text/css">
	.st0{clip-path:url(#SVGID_2_);}
	.st1{fill:#4D6804;}
	.st2{fill:#364203;}
	.st3{fill:#3A1C08;}
	.st4{fill:#281205;}
	.st5{fill:#79A305;}
	.st6{fill:#6D8906;}
	.st7{fill:#512A0D;}
	.st8{fill:#90B50B;}
</style>
<title>樹林</title>
<g id="圖層_2">
	<g id="圖層_1-2">
		<g>
			<defs>
				<rect id="SVGID_1_" width="1370.1" height="745"/>
			</defs>
			<clipPath id="SVGID_2_">
				<use xlink:href="#SVGID_1_"  style="overflow:visible;"/>
			</clipPath>
			<g class="st0">
				<path class="st1" d="M427.6,213.3c-0.2-2.6-0.4-5.3-0.7-7.9c-2.1-20.1-6.1-39.9-11.9-59.2c-0.6-2-1.2-3.9-1.8-5.8
					c-8.4-25.9-19.8-50.8-34.1-74l-48,73.9h27.4l-2,3l-40.1,61.8h31.3l-0.2,0.2l-2,3l-50.9,78.3h17.7l-0.1,0.1l-3.3,5.1l-44.9,69.1
					h134.6c9.7-20,17.2-41,22.3-62.7c0.9-3.9,1.7-7.7,2.4-11.6C428,262.5,429.4,237.8,427.6,213.3z"/>
				<path class="st2" d="M421,298.4c-5.1,21.7-12.5,42.7-22.3,62.7H526l-38.3-58.9l-9.9-15.4l-0.1-0.1h17.7l-46.9-72.2l-5.9-9.1
					l-0.2-0.2h31.3l-37.6-58l-4.5-6.9h27.3l-64-98.6l-16,24.6c14.2,23.2,25.7,48.1,34.1,74c0.6,1.9,1.2,3.9,1.8,5.8
					c5.9,19.3,9.9,39.2,11.9,59.2c0.3,2.6,0.5,5.2,0.7,7.9c1.8,24.6,0.5,49.3-4.1,73.5C422.8,290.6,421.9,294.5,421,298.4z"/>
				<polygon class="st3" points="366.3,488.5 395.5,488.5 395.5,125.3 				"/>
				<polygon class="st4" points="396.2,116.5 395.5,125.3 395.5,488.5 412.5,488.5 				"/>
				<path class="st5" d="M1136.2,92.7c-26.5,3.2-46.9,24.8-48.7,51.4c-0.1,1.3-0.1,2.6-0.1,3.9c-24.2,5.2-42,25.8-43.7,50.5
					c-0.2,3-0.2,5.9,0.1,8.9c-20.7,22.6-19.1,57.7,3.4,78.3c1.5,1.3,3,2.6,4.6,3.8c-12.1,23.6-2.8,52.6,20.8,64.7
					c5.8,3,12.2,4.7,18.7,5.2l0,0c9.7,24.7,37.7,36.8,62.3,27c9.5-3.8,17.6-10.5,23-19.1l0.9,0.1
					C1203.5,274.8,1153.7,136.6,1136.2,92.7z"/>
				<path class="st6" d="M1258.9,255.3c1.5-21.4-9.6-41.7-28.3-52.2c6.4-26.7-7.6-54.1-33-64.4c-4.2-25.4-25.3-44.6-51-46.4
					c-3.5-0.2-7-0.1-10.4,0.3c17.5,43.9,67.3,182.2,41.6,274.6c0.8,0.1,1.7,0.2,2.6,0.2c32.2,2.1,60-22.2,62.1-54.3
					c0.5-6.8-0.3-13.5-2.1-20C1251.2,283.4,1257.9,269.8,1258.9,255.3z"/>
				<polygon class="st7" points="1128.7,281.6 1077,249.6 1126.1,304.8 1102.2,518.8 1135.6,519.2 1137.5,203.4 				"/>
				<polygon class="st3" points="1143.9,266.2 1195,208.8 1142.1,241.6 1138.7,192.7 1137.5,203.4 1135.6,519.2 1161.9,519.5 				
					"/>
				<path class="st1" d="M961.9,157.3c-29.9,3.6-52.9,28-54.9,58c-0.1,1.5-0.1,2.9-0.1,4.4c-31,6.7-52.1,35.5-49.2,67.1
					c-23.4,25.5-21.6,65.1,3.8,88.5c1.7,1.5,3.4,3,5.2,4.3c-13.7,26.7-3.1,59.3,23.6,73c6.6,3.4,13.7,5.3,21.1,5.8l0,0
					c11,27.9,42.5,41.5,70.4,30.5c10.8-4.2,19.9-11.8,26-21.6l1,0.1C1038,363,981.7,206.9,961.9,157.3z"/>
				<path class="st2" d="M1100.5,340.9c1.6-24.1-10.8-47.1-31.9-58.9c7.3-30.1-8.6-61-37.3-72.7c-5.4-33.1-36-56.1-69.4-52
					c19.8,49.6,76,205.7,46.9,310.1c1,0.1,1.9,0.2,2.9,0.3c36.3,2.4,67.7-25.1,70.1-61.4c0.5-7.6-0.3-15.2-2.4-22.6
					C1091.9,372.7,1099.4,357.4,1100.5,340.9z"/>
				<polygon class="st3" points="963.2,374.3 904.8,338.1 960.3,400.5 933.2,642.2 971,642.6 973.1,285.9 				"/>
				<polygon class="st4" points="980.3,356.9 1038,292.1 978.4,329.1 974.4,273.9 973.1,285.9 971,642.6 1000.7,643 				"/>
				<path class="st1" d="M17.1,160.5c-29.2,3.5-51.7,27.3-53.6,56.6c-0.1,1.4-0.1,2.9-0.1,4.3c-30.3,6.5-50.9,34.6-48,65.5
					c-22.8,24.9-21.1,63.6,3.8,86.4c1.6,1.5,3.3,2.9,5.1,4.2c-13.3,26-3.1,57.9,23,71.3c6.4,3.3,13.4,5.2,20.6,5.7h0.1
					c10.7,27.2,41.5,40.6,68.7,29.8C47.1,480,56,472.6,62,463.1l1,0.1C91.3,361.3,36.4,208.9,17.1,160.5z"/>
				<path class="st2" d="M152.4,339.7c1.6-23.6-10.5-45.9-31.2-57.5c7.1-29.4-8.4-59.6-36.5-71c-4.6-28-27.9-49.2-56.3-51.1
					c-3.8-0.2-7.7-0.1-11.5,0.3c19.3,48.4,74.2,200.8,45.8,302.7c0.9,0.1,1.9,0.2,2.8,0.3c35.5,2.4,66.1-24.5,68.5-59.9
					c0.5-7.4-0.3-14.9-2.4-22.1C143.9,370.8,151.3,355.8,152.4,339.7z"/>
				<polygon class="st3" points="18.4,372.4 -38.7,337 15.5,397.9 -10.9,633.8 26,634.3 28,286.1 				"/>
				<polygon class="st4" points="35.1,355.4 91.4,292 33.2,328.2 29.3,274.3 28,286.1 26,634.3 55,634.6 				"/>
				<path class="st1" d="M575.2,24.2c-25.7,3.1-45.6,24.1-47.3,49.9c-0.1,1.3-0.1,2.5-0.1,3.8C504.3,82.9,487,103,485.4,127
					c-0.2,2.9-0.2,5.8,0.1,8.6c-20.1,22-18.6,56.1,3.4,76.2c1.4,1.3,2.9,2.5,4.4,3.7c-11.8,23-2.7,51.1,20.3,62.9
					c5.7,2.9,11.8,4.6,18.2,5h0.1c9.5,24,36.6,35.8,60.6,26.3c9.3-3.7,17.1-10.2,22.4-18.6l0.8,0.1
					C640.7,201.3,592.3,66.9,575.2,24.2z"/>
				<path class="st2" d="M694.7,182.2c1.4-20.8-9.3-40.5-27.5-50.7c6.2-25.9-7.4-52.5-32.1-62.6c-4.1-24.7-24.6-43.4-49.6-45.1
					c-3.4-0.2-6.8-0.1-10.1,0.3c17,42.7,65.5,177.1,40.4,267c0.8,0.1,1.6,0.2,2.5,0.2c31.3,2,58.3-21.7,60.4-53
					c0.4-6.5-0.3-13-2.1-19.3C687.2,209.7,693.7,196.4,694.7,182.2z"/>
				<polygon class="st3" points="576.4,211 526.1,179.8 573.9,233.5 550.6,441.6 583.1,442 584.9,134.9 				"/>
				<polygon class="st4" points="591.1,196 640.8,140.2 589.4,172.1 586.1,124.5 584.9,134.9 583.1,442 608.7,442.3 				"/>
				<path class="st5" d="M762.1,336.5c-5.3,22.9-13.2,45.1-23.5,66.2H873l-40.3-62.2l-10.6-16.2l-0.1-0.1h18.7L791.3,248l-6.3-9.7
					l-0.2-0.2h33l-39.8-61.2l-4.7-7.3h28.8L734.7,65.5l-16.8,26c15,24.5,27.1,50.7,35.9,78.1c0.6,2,1.3,4.1,1.9,6.2
					c6.2,20.4,10.5,41.3,12.6,62.5c0.3,2.8,0.5,5.5,0.7,8.3c1.9,26,0.5,52.1-4.3,77.7C763.9,328.3,763.1,332.4,762.1,336.5z"/>
				<path class="st8" d="M769,246.7c-0.2-2.8-0.4-5.6-0.7-8.3c-2.2-21.2-6.4-42.1-12.6-62.5c-0.6-2.1-1.3-4.2-1.9-6.2
					c-8.9-27.4-20.9-53.6-35.9-78.1l-50.7,78.1H696l-2.1,3.2L651.5,238h33l-0.2,0.2l-2.1,3.2l-53.6,82.7h18.7l-0.1,0.1l-3.5,5.4
					l-47.4,73h142.1c10.3-21.1,18.2-43.3,23.5-66.2c1-4.1,1.8-8.2,2.6-12.2C769.5,298.7,770.9,272.6,769,246.7z"/>
				<polygon class="st7" points="702.7,537.3 733.4,537.3 733.4,153.8 				"/>
				<polygon class="st3" points="734.2,144.4 733.4,153.8 733.4,537.3 751.4,537.3 				"/>
				<path class="st5" d="M1373.5,367.3c-5.3,22.9-13.2,45.1-23.5,66.2h134.4l-40.3-62.2l-10.5-16.2l-0.1-0.1h18.7l-49.4-76.2
					l-6.3-9.7l-0.2-0.2h33l-39.7-61.2l-4.7-7.3h28.8l-67.6-104.1l-16.9,26c15,24.5,27.1,50.7,35.9,78.1c0.6,2,1.3,4.1,1.9,6.2
					c6.2,20.4,10.4,41.3,12.6,62.5c0.3,2.8,0.5,5.5,0.7,8.3c1.9,26,0.5,52-4.3,77.6C1375.3,359.2,1374.5,363.2,1373.5,367.3z"/>
				<path class="st8" d="M1380.4,277.5c-0.2-2.8-0.4-5.6-0.7-8.3c-2.2-21.2-6.4-42.1-12.6-62.5c-0.6-2.1-1.3-4.2-1.9-6.2
					c-8.9-27.4-20.9-53.6-35.9-78.1l-50.7,78.1h28.8l-2.1,3.2l-42.4,65.3h33l-0.2,0.2l-2.1,3.2l-53.6,82.7h18.7l-0.1,0.1l-3.5,5.4
					l-47.4,73h142.2c10.3-21.1,18.2-43.3,23.5-66.2c1-4.1,1.8-8.1,2.6-12.2C1381,329.5,1382.4,303.4,1380.4,277.5z"/>
				<polygon class="st7" points="1314.1,568.1 1344.8,568.1 1344.8,184.6 				"/>
				<polygon class="st3" points="1345.6,175.3 1344.8,184.6 1344.8,568.1 1362.8,568.1 				"/>
				<path class="st5" d="M256.3,363.9c-5.6,23.8-13.8,46.9-24.5,68.9h139.9l-42-64.7l-11-16.9l-0.1-0.1h19.5l-51.5-79.3l-6.5-10.1
					l-0.2-0.2h34.4L273,197.7l-5-7.5h30.1L227.7,81.8l-17.6,27.1c15.6,25.5,28.2,52.8,37.4,81.3c0.7,2.1,1.3,4.3,2,6.4
					c6.5,21.2,10.9,43,13.1,65.1c0.3,2.9,0.5,5.8,0.7,8.7c2,27,0.5,54.2-4.5,80.8C258.2,355.4,257.3,359.6,256.3,363.9z"/>
				<path class="st8" d="M263.5,270.4c-0.2-2.9-0.5-5.8-0.7-8.7c-2.3-22.1-6.7-43.9-13.1-65.1c-0.7-2.2-1.3-4.3-2-6.4
					c-9.2-28.5-21.8-55.8-37.4-81.3l-52.8,81.3h30l-2.2,3.3l-44.1,68h34.4l-0.2,0.2l-2.2,3.3l-55.8,86.1h19.5l-0.1,0.1l-3.7,5.7
					l-49.3,76h148c10.7-22,18.9-45.1,24.5-68.9c1-4.3,1.9-8.5,2.7-12.8C264,324.5,265.5,297.4,263.5,270.4z"/>
				<polygon class="st7" points="194.4,572.9 226.4,572.9 226.4,173.7 				"/>
				<polygon class="st3" points="227.2,164 226.4,173.7 226.4,572.9 245.1,572.9 				"/>
				<path class="st5" d="M159.3,619.5c-7,30-17.4,59.2-30.9,87h176.5l-53-81.7L238,603.4l-0.1-0.2h24.6l-64.9-100.1l-8.2-12.7
					l-0.2-0.3h43.4l-52.2-80.4l-6.2-9.6h37.9l-88.8-136.8L101,297.6c19.7,32.2,35.6,66.6,47.2,102.6c0.9,2.7,1.7,5.4,2.5,8.1
					c8.2,26.8,13.7,54.3,16.6,82.1c0.4,3.6,0.7,7.3,0.9,10.9c2.5,34.1,0.6,68.4-5.7,102C161.6,608.7,160.5,614.1,159.3,619.5z"/>
				<path class="st8" d="M168.3,501.4c-0.3-3.7-0.6-7.3-0.9-10.9c-2.8-27.9-8.4-55.4-16.5-82.1c-0.8-2.7-1.7-5.4-2.5-8.1
					c-11.7-35.9-27.6-70.4-47.3-102.6L34.5,400.2h37.9l-2.7,4.2L14,490.2h43.4l-0.2,0.3l-2.7,4.2L-16,603.2H8.6l-0.1,0.2l-4.6,7.1
					l-62.2,95.9h186.7c13.5-27.7,23.9-56.9,30.9-87c1.2-5.4,2.4-10.8,3.4-16C169,569.8,170.9,535.5,168.3,501.4z"/>
				<polygon class="st7" points="81.2,883.2 121.6,883.2 121.6,379.5 				"/>
				<polygon class="st3" points="122.6,367.2 121.6,379.5 121.6,883.2 145.2,883.2 				"/>
				<path class="st1" d="M857.4,483.2c-0.3-3.8-0.6-7.6-1-11.3c-2.9-28.7-8.7-57.1-17.1-84.8c-0.9-2.8-1.7-5.6-2.6-8.4
					c-12-37.1-28.4-72.6-48.8-105.9l-68.7,105.9h39.1l-2.8,4.3l-57.4,88.5h44.8l-0.2,0.3l-2.8,4.3l-72.7,112.1h25.4l-0.1,0.2
					l-4.8,7.4l-64.2,98.9h192.7c14-28.6,24.7-58.7,31.9-89.8c1.3-5.5,2.4-11.1,3.5-16.6C858,553.7,860,518.4,857.4,483.2z"/>
				<path class="st2" d="M848,605c-7.3,31-18,61.1-31.9,89.8h182.2l-54.7-84.3l-14.3-22l-0.1-0.2h25.4l-67-103.3l-8.5-13.1l-0.2-0.3
					h44.8l-53.9-83l-6.4-9.9h39.1l-91.6-141.2L788,272.8c20.4,33.3,36.7,68.8,48.8,105.9c0.9,2.8,1.8,5.6,2.6,8.4
					c8.4,27.6,14.1,56,17.1,84.8c0.4,3.7,0.7,7.5,1,11.3c2.6,35.2,0.6,70.6-5.9,105.3C850.5,593.9,849.4,599.4,848,605z"/>
				<polygon class="st3" points="769.7,877.2 811.4,877.2 811.4,357.3 				"/>
				<polygon class="st4" points="812.4,344.6 811.4,357.3 811.4,877.2 835.8,877.2 				"/>
				<path class="st5" d="M557.7,197.4c-42.2,5.1-74.8,39.6-77.7,82c-0.1,2.1-0.2,4.1-0.2,6.2c-43.8,9.5-73.7,50.2-69.6,94.8
					c-33,36.1-30.6,92.1,5.5,125.1c2.3,2.1,4.8,4.1,7.3,6c-19.3,37.7-4.4,83.9,33.3,103.2c9.3,4.8,19.4,7.6,29.8,8.3h0.1
					c15.6,39.4,60.1,58.7,99.5,43.2c15.2-6,28.1-16.7,36.8-30.5l1.4,0.2C665.2,488.2,585.7,267.6,557.7,197.4z"/>
				<path class="st6" d="M753.6,457c2.3-34.1-15.2-66.5-45.1-83.2c10.3-42.6-12.1-86.3-52.7-102.8c-7.7-46.8-50.9-79.3-98.1-73.5
					c28,70.1,107.5,290.8,66.4,438.3c1.4,0.2,2.7,0.3,4.1,0.4c51.3,3.4,95.7-35.4,99.2-86.7c0.7-10.8-0.4-21.6-3.4-32
					C741.4,502,752.1,480.3,753.6,457z"/>
				<polygon class="st7" points="545.8,499.1 463.2,447.9 541.7,536.1 503.4,877.8 556.8,878.4 559.8,374.1 				"/>
				<polygon class="st3" points="570,474.5 651.6,382.8 567.2,435.1 561.7,357.1 559.8,374.1 556.8,878.4 598.8,878.9 				"/>
				<path class="st1" d="M336,304.6c-35.4,4.3-62.7,33.2-65.1,68.7c-0.1,1.7-0.2,3.5-0.2,5.2c-36.7,7.9-61.8,42-58.3,79.5
					c-27.7,30.2-25.6,77.2,4.6,104.8c1.9,1.8,4,3.5,6.1,5c-16.2,31.6-3.7,70.3,27.9,86.5c7.8,4,16.3,6.3,25,6.9h0.1
					c13,33,50.4,49.2,83.4,36.2c12.7-5,23.5-14,30.8-25.6l1.2,0.1C426.1,548.3,359.5,363.4,336,304.6z"/>
				<path class="st2" d="M500.2,522.1c1.9-28.6-12.8-55.8-37.8-69.8c8.6-35.7-10.2-72.3-44.2-86.1c-5.6-34-33.9-59.7-68.3-62
					c-4.6-0.3-9.3-0.2-13.9,0.4c23.4,58.8,90.1,243.7,55.7,367.4c1.2,0.1,2.3,0.2,3.4,0.3c43,2.8,80.2-29.7,83.1-72.8
					c0.6-9-0.4-18.1-2.9-26.8C490,559.8,498.9,541.6,500.2,522.1z"/>
				<polygon class="st3" points="337.5,561.7 268.3,518.8 334.1,592.7 302.1,879.1 346.8,879.6 349.3,457 				"/>
				<polygon class="st4" points="357.9,541.1 426.2,464.3 355.5,508.1 350.9,442.7 349.3,457 346.8,879.6 382,880 				"/>
				<path class="st1" d="M1219.7,248.1c-38.3,4.7-67.9,35.9-70.5,74.4c-0.1,1.9-0.2,3.7-0.2,5.6c-39.8,8.6-66.9,45.5-63.1,86.1
					c-30,32.7-27.8,83.5,4.9,113.5c2.1,1.9,4.3,3.8,6.7,5.5c-17.5,34.2-4,76.2,30.2,93.7c8.4,4.3,17.6,6.9,27.1,7.5h0.1
					c14.1,35.8,54.6,53.3,90.3,39.2c13.8-5.4,25.5-15.2,33.4-27.7l1.3,0.2C1317.3,512.1,1245,311.8,1219.7,248.1z"/>
				<path class="st2" d="M1397.5,483.8c2.1-31-13.9-60.4-41-75.6c9.3-38.7-11-78.3-47.9-93.3c-6.1-36.8-36.7-64.7-74-67.2
					c-5-0.3-10.1-0.2-15.1,0.4c25.4,63.7,97.6,264,60.3,398c1.2,0.1,2.5,0.3,3.7,0.3c46.6,3.1,87-32.2,90.1-78.8
					c0.6-9.8-0.4-19.6-3.1-29C1386.5,524.6,1396.2,504.9,1397.5,483.8z"/>
				<polygon class="st3" points="1221.3,526.7 1146.3,480.2 1217.6,560.2 1182.9,870.4 1231.3,871 1234,413.2 				"/>
				<polygon class="st4" points="1243.3,504.3 1317.4,421.1 1240.8,468.6 1235.7,397.8 1234,413.2 1231.3,871 1269.4,871.5 				"/>
				<path class="st5" d="M1050.5,673.5c-7.8,33.5-19.4,65.9-34.4,96.8h196.5l-59-90.9l-15.4-23.8l-0.1-0.2h27.4l-72.3-111.4
					l-9.2-14.1l-0.2-0.3h48.3l-58.1-89.5l-6.9-10.6h42.2l-98.8-152.3l-24.7,38.1c22,35.9,39.6,74.2,52.6,114.2c1,3,1.9,6,2.8,9
					c9.1,29.8,15.3,60.4,18.4,91.5c0.4,4,0.8,8.1,1.1,12.2c2.8,38,0.7,76.1-6.3,113.5C1053.2,661.5,1051.9,667.5,1050.5,673.5z"/>
				<path class="st8" d="M1060.6,542.1c-0.3-4.1-0.6-8.1-1.1-12.2c-3.2-31-9.4-61.6-18.4-91.5c-0.9-3-1.8-6.1-2.8-9
					c-13-40-30.7-78.4-52.6-114.2l-74.1,114.2h42.2l-3,4.6l-62,95.5h48.3l-0.2,0.3l-3,4.6l-78.5,120.9h27.4l-0.1,0.2l-5.2,8
					l-69.3,106.7h207.9c15.1-30.9,26.6-63.4,34.4-96.8c1.4-6,2.6-11.9,3.8-17.9C1061.3,618.2,1063.5,580.1,1060.6,542.1z"/>
				<polygon class="st7" points="963.6,967.1 1008.6,967.1 1008.6,406.3 				"/>
				<polygon class="st3" points="1009.7,392.6 1008.6,406.3 1008.6,967.1 1034.9,967.1 				"/>
			</g>
		</g>
	</g>
</g>
</svg>
