<svg xmlns="http://www.w3.org/2000/svg" viewBox="0 0 457.29 287.57"><defs><style>.cls-1,.cls-3{fill:#fff;}.cls-2{fill:#f5b619;}.cls-3{opacity:0.7;}.cls-4{fill:#535666;}.cls-5{fill:#f5bb21;}</style></defs><title>mainLogo</title><g id="圖層_2" data-name="圖層 2"><g id="圖層_1-2" data-name="圖層 1"><path class="cls-1" d="M252.5,90.35c.52-.49,14.07-18,25.28-14.47S273.85,98,265.52,98.46c0,0,17,.24,15.12,11s-22.35-.31-22.35-.31,7.9,15.41-1.35,17.81S240.72,101.43,252.5,90.35Z"/><path class="cls-1" d="M191.53,100.73c-.6-.47-16.6-17.74-28.14-13s6.23,23.07,15.1,22.78c0,0-18,1.85-15,13.07s23.66-2.42,23.66-2.42-6.94,17.08,3.09,18.74S205.05,111.37,191.53,100.73Z"/><path class="cls-2" d="M243.77,47l-9.06-5.51a41.12,41.12,0,0,0-20.49-3.32l-10.34,2.37a40.93,40.93,0,0,0-11.37,70.27l9.06,5.52.17.07c0,.18,0,.35,0,.53,1.11,11.59,12.57,22.49,24.73,20.38C232.7,136.28,238,134,242,129a22.8,22.8,0,0,0,4.89-16.37,21,21,0,0,0-.75-3.85,43,43,0,0,0,3.9-4.19A40.94,40.94,0,0,0,243.77,47Z"/><path class="cls-3" d="M248.58,86c3.54,1.82,4.46,7.07,2.06,11.74s-7.21,7-10.75,5.16-.93-4.14,1.47-8.8S245,84.2,248.58,86Z"/><path class="cls-1" d="M211.52,90.08A11.16,11.16,0,0,0,210,84.73,12.08,12.08,0,0,0,211.52,90.08Z"/><path class="cls-1" d="M224.27,86.87c.1,1.21.59,1.34.8,1.4a.69.69,0,0,0,.87-.25c.8-1,1-3.93-.1-6.87A11.15,11.15,0,0,0,224.27,86.87Z"/><path class="cls-1" d="M237.34,75.17c-2.49-2.54-5.5-3.18-8.48-1.81a10.62,10.62,0,0,0-2.78,1.91,11.32,11.32,0,0,0-9.4-3.32c-5.08.48-7.93,3.27-9.24,6.71a6.53,6.53,0,0,0-4,.62c-2.91,1.41-4.43,4.35-4.18,8.09.41,6,5.37,13.73,13.05,16.62l12.05,31.94,3.19-1.2-12.62-33.45-.78-.25c-6.45-2.09-11.15-8.87-11.49-13.88-.11-1.64.19-3.79,2.26-4.79a2.67,2.67,0,0,1,1.74-.36,16.4,16.4,0,0,0-.08,2.79c.25,4.57,2.3,9.27,5.32,9.23a2.9,2.9,0,0,0,2.69-2c1-2.72-.47-8.57-3.7-11.53l-.36-.32c1-2.87,3.15-4.48,6.48-4.79a7.77,7.77,0,0,1,6.86,2.53c-2,3-3.22,6.63-3,9.29a4.59,4.59,0,0,0,3.31,4.39,4.07,4.07,0,0,0,4.43-1.44c2-2.57,1.83-7.83-.43-12l-.07-.12a7.64,7.64,0,0,1,2.16-1.57c1.66-.76,3.13-.42,4.63,1.11,5.78,5.89-2.92,18.62-6.76,23l-.44.5,1,31,3.41-.11-.94-29.66C233.71,99.22,245.75,83.73,237.34,75.17ZM211.52,90.08A12.08,12.08,0,0,1,210,84.73,11.16,11.16,0,0,1,211.52,90.08ZM225.94,88a.69.69,0,0,1-.87.25c-.21-.05-.69-.18-.8-1.4a11.15,11.15,0,0,1,1.57-5.73C227,84.08,226.74,87,225.94,88Z"/><path class="cls-4" d="M244.81,139.17a6.72,6.72,0,0,0,.21-5.38c.16-.29,2.69-5-.77-8.18a53.87,53.87,0,0,1-34.34,6.6s-2,3.62,2.13,7.64h0a6.45,6.45,0,0,0,2,5,6.14,6.14,0,0,0,2.2,5.07s.57.14,1.58.3c2.58,4.49,7.62,7.72,12.89,6.81,6.07-1,11-5.29,11.93-11.18.57-.33,1.13-.68,1.68-1.06C244.4,144.76,246.09,141.77,244.81,139.17Zm-.55-.87a4.67,4.67,0,0,0-.51-.54A4.67,4.67,0,0,1,244.26,138.3Zm-1.66,2.64c.65-.39,1.31-.79,2-1.23C243.9,140.16,243.25,140.56,242.6,140.95Z"/><ellipse class="cls-3" cx="204.73" cy="69.33" rx="26.3" ry="19.93" transform="translate(14.92 172.74) rotate(-47.29)"/><polygon class="cls-5" points="142.59 65.63 162.38 71.2 141.84 72.11 142.59 65.63"/><polygon class="cls-5" points="174.4 14.42 183.65 36.47 168.78 17.74 174.4 14.42"/><polygon class="cls-5" points="245.29 1.49 236.26 25.64 238.95 0 245.29 1.49"/><polygon class="cls-5" points="293.98 50.44 271 59.55 290.8 44.75 293.98 50.44"/><polygon class="cls-5" points="166.4 42.18 175.94 52.31 162.83 47.64 166.4 42.18"/><polygon class="cls-5" points="217.12 15.41 215.59 30.04 210.65 16.18 217.12 15.41"/><polygon class="cls-5" points="270.24 41.33 259.15 44.52 266.73 35.83 270.24 41.33"/><polygon class="cls-5" points="279.04 89.39 268.81 83.11 280.81 83.11 279.04 89.39"/><polygon class="cls-5" points="158.01 106.87 171.24 100.17 162.16 111.9 158.01 106.87"/><path class="cls-1" d="M49.59,261.48V219.7a5.15,5.15,0,0,1,5.15-5.15H70.92a10.73,10.73,0,0,1,10.64,10.64v2.9A11.43,11.43,0,0,1,79.11,235q-2.45,3.31-8.19,3.31h5.3a5.37,5.37,0,0,1,5.35,5.34v17.85a1,1,0,0,1-1,1H72a1,1,0,0,1-1-1V246.53a5.4,5.4,0,0,0-5.34-5.35H61.27a1,1,0,0,0-1,1v19.26a1,1,0,0,1-1,1H50.62A1,1,0,0,1,49.59,261.48Zm10.64-26.63a1,1,0,0,0,1,1h4.31a5.42,5.42,0,0,0,5.34-5.34v-5.35a5.05,5.05,0,0,0-1.59-3.73,5.18,5.18,0,0,0-3.76-1.56H61.27a1,1,0,0,0-1,1Z"/><path class="cls-1" d="M86.18,261.48V215.59a1,1,0,0,1,1-1h8.59a1,1,0,0,1,1,1v45.89a1,1,0,0,1-1,1H87.21A1,1,0,0,1,86.18,261.48Z"/><path class="cls-1" d="M112.18,214.55h10.69a10.73,10.73,0,0,1,10.64,10.64v26.68a10.75,10.75,0,0,1-10.64,10.64H112.18a10.7,10.7,0,0,1-10.64-10.64V225.19a10.7,10.7,0,0,1,10.64-10.64Zm0,10.64v26.68a5.06,5.06,0,0,0,1.26,3.4,5.5,5.5,0,0,0,4.45,1.89,5.35,5.35,0,0,0,5-5.28V225.19a5.05,5.05,0,0,0-1.59-3.73,5.17,5.17,0,0,0-3.39-1.55,5.52,5.52,0,0,0-4.44,1.87A5,5,0,0,0,112.18,225.19Z"/><path class="cls-1" d="M159.75,214.55h8.57a1,1,0,0,1,1,1v36.28a10.75,10.75,0,0,1-10.64,10.64H148a10.7,10.7,0,0,1-10.64-10.64V215.59a1,1,0,0,1,1-1H147a1,1,0,0,1,1,1v36.28a5.06,5.06,0,0,0,1.26,3.4,5.5,5.5,0,0,0,4.45,1.89,5.35,5.35,0,0,0,5-5.28V215.59A1,1,0,0,1,159.75,214.55Z"/><path class="cls-1" d="M198.71,225.19h-3.29a1,1,0,0,1-1-.85q-.92-4.49-4.9-4.49a5.93,5.93,0,0,0-4.22,1.35,5.29,5.29,0,0,0-1.42,4,5.51,5.51,0,0,0,1.57,3.75l11.29,12.69a11.11,11.11,0,0,1,3.12,7.52v2.7a10.73,10.73,0,0,1-10.64,10.64h-5.35q-5.3,0-8-2.67a10.17,10.17,0,0,1-2.64-6.89,1,1,0,0,1,1-1.08h4.27c0,.37-.05.66-.05.87a3.72,3.72,0,0,0,1.67,3.3,6.45,6.45,0,0,0,3.67,1.12,5.31,5.31,0,0,0,4.1-1.37,5.75,5.75,0,0,0,1.25-4,5.45,5.45,0,0,0-1.57-3.75l-11.29-12.64a11,11,0,0,1-3.12-7.52v-2.7a10.7,10.7,0,0,1,10.64-10.64h5.35q9.44,0,10.54,9.5A1,1,0,0,1,198.71,225.19Z"/><path class="cls-1" d="M26.38,280H15.06a14.5,14.5,0,0,1-10.63-4.44A14.5,14.5,0,0,1,0,264.94V227.17a14.5,14.5,0,0,1,4.44-10.62,14.49,14.49,0,0,1,10.63-4.44H30.2a14.47,14.47,0,0,1,10.62,4.46,14.52,14.52,0,0,1,4.44,10.61v37.76q0,13.33-15.06,15.06H45.26v7.57H33.94Q27.26,287.57,26.38,280ZM15.06,227.17v37.76a7.58,7.58,0,0,0,7.57,7.5,7.58,7.58,0,0,0,7.57-7.5V227.17A7.16,7.16,0,0,0,28,221.89a7.53,7.53,0,0,0-10.66,0A7.18,7.18,0,0,0,15.06,227.17Z"/><path class="cls-1" d="M63.82,281.82q.12-.79.18-1.52a5,5,0,0,1,.67.24q.6.24,1.64.55a9.75,9.75,0,0,1-.48,2.12q-.36,1.45-2.18,1.39h-2.3a1.79,1.79,0,0,1-2.06-2V279.7H57.76q.24,3.58-4.91,5.21-.48-.79-1.45-2.12,4.06-1,3.82-3.09H52.55v-8.48a34.48,34.48,0,0,0,5.58-.85l.73,2.24q-1.09.24-3.09.48a6.85,6.85,0,0,0-.79.12v1.33h3.27v1.88H55v1.33h7.76v-1.33H59.46v-1.88h3.27v-1.27H59.34v-2.06h5.82v8.48H61.83v2.06q-.06.85.67.79H63Q63.7,282.61,63.82,281.82Z"/><path class="cls-1" d="M77,270.37h2.42v1.09h5.21V273H82.7l-.48.79h3.27v1.51H70.94v-1.51h3.27l-.48-.79H71.67v-1.51H77Zm-4.79,5.39h12v4.79H79.43V281h5.15v1.39H79.43V283h6.12v1.39H70.94V283H77v-.55H71.85V281H77v-.48H72.22ZM74.58,277v.55H77V277Zm0,1.82v.55H77v-.55ZM76.4,273l.48.79h2.67L80,273Zm5.45,4H79.43v.55h2.42Zm-2.42,1.82v.55h2.42v-.55Z"/><path class="cls-1" d="M91.51,270.43h1.94V273h.79v2.18h-.79v1a4.63,4.63,0,0,1,.79.67q.3.24.42.36L94,279.34l-.54-.61v6.18H91.51v-5.39a19.58,19.58,0,0,1-1,2.3,6.4,6.4,0,0,1-.12-.79q-.18-1.64-.3-2.42a12.23,12.23,0,0,0,1.27-3.39h-1V273h1.15Zm2.91,7.76h4.24l-.12-1-.73.36a1.07,1.07,0,0,0-.06-.24.75.75,0,0,0-.12-.18q-1.7.12-2.79.24l-.61-1.39H95a11.77,11.77,0,0,0,.73-1.21,2.37,2.37,0,0,1,.3-.42q-.91-1-1.76-1.88l.85-.85.24.24a2.6,2.6,0,0,1,.24-.48,8.26,8.26,0,0,0,.42-.85l1.58.61q-.18.3-.54.79a6,6,0,0,0-.67,1l.3.36.54-.91,1.15.67v-2.54h2V272l.61-.61.42.48a10.35,10.35,0,0,0,.67-1.33l1.51.48-1.27,1.7.36.42.61-1,1.27.61q-.18.3-.67,1t-.73,1.15l.79-.36q.24.54.85,2.06l.12.36-1.15.42a.55.55,0,0,0-.06-.24.66.66,0,0,0-.12-.24q-.24,0-.91.06-1.15.06-1.76.12l-.42-1.33h.67q.24-.42.67-1.09l.18-.36q-.79-.91-1.64-1.76,0,1.88.12,3.7c0,.24,0,.57.06,1a5.43,5.43,0,0,0,.06,1h1l-.3-.79,1.76-.24.48,1h1.21V280h-1.7l1,.85a26.72,26.72,0,0,1-2.24,1.82.74.74,0,0,0,.61.3.58.58,0,0,0,.55-.36,4.14,4.14,0,0,0,.3-.61l.18-.36a8.09,8.09,0,0,0,1.51,1,5.08,5.08,0,0,1-.85,1.52,1.92,1.92,0,0,1-1.7.79,2.73,2.73,0,0,1-2.3-1.27,22.82,22.82,0,0,1-2.42,1.27l-.42-.61q-.42-.67-.67-1l1.15-.42a9.09,9.09,0,0,0-1-.67,8.63,8.63,0,0,1-1.7,2.91,10.46,10.46,0,0,0-1.51-1.58A4.75,4.75,0,0,0,95.21,280h-.79Zm2.67-2.3-.3-.67-.49.73Zm.73-1.21a2.8,2.8,0,0,0,.3.67q.24.55.36.85,0-.79-.12-2.73.12,1.33,0-.36l-1.45,2ZM97.15,280v.55q.79.36,1.7.73L98,282.85q.73-.36,1.39-.73a10.87,10.87,0,0,1-.49-1.94c0,.08,0,0-.06-.18Zm3.94,1a5,5,0,0,0,1-.73,2.3,2.3,0,0,0,.42-.3h-1.64a4,4,0,0,1,.12.61A1.39,1.39,0,0,1,101.09,281Zm2-5.33-.18-.48a2.46,2.46,0,0,1-.36.48Z"/><path class="cls-1" d="M122.87,270.73l1.27,1.7q-1.15.55-3.51,1.45l-.67.3v.61a.59.59,0,0,0,.67.67h.67a.64.64,0,0,0,.67-.61,1.89,1.89,0,0,1,.12-.55c0-.36.08-.65.12-.85a7.53,7.53,0,0,1,.73.24,11.62,11.62,0,0,1,1.27.42q-.12.85-.36,1.88a1.92,1.92,0,0,1-2.06,1.45h-2.06q-2.06,0-2.06-2.24V275l-1.45.91-.55-.85-2.54.18q-2.48.18-3.64.24l-.24-1.94H110a32.29,32.29,0,0,0,2.3-3.58l2.3.79q-.3.36-1,1.33t-1,1.33l2-.12a5,5,0,0,1-.48-.61l-.18-.36,1.58-.91q.73.85,1.82,2.3l.42.61v-3.82H120v1.58a.47.47,0,0,0,.18-.06Q121.78,271.34,122.87,270.73Zm-10.67,14.06h-2.06v-8.73H117v6.85a1.6,1.6,0,0,1-1.64,1.82h-.85c-.48,0-.85.06-1.09.06a1.67,1.67,0,0,0-.06-.36A9.49,9.49,0,0,0,113,283h1.27c.4,0,.61-.18.61-.55v-.12h-2.67Zm0-7v.67h2.67v-.67Zm0,2.3v.67h2.67v-.67Zm10.6-2.3,1.27,1.7q-2.18,1-4.12,1.82v.79a.59.59,0,0,0,.67.67h.67a.63.63,0,0,0,.73-.61,14.54,14.54,0,0,0,.18-1.58,14.37,14.37,0,0,0,2,.67,16.86,16.86,0,0,1-.36,2q-.24,1.39-2,1.39h-2.06a1.85,1.85,0,0,1-2.12-2.06v-4.79H120v1.39l.3-.12Q121.84,278.37,122.81,277.82Z"/><path class="cls-1" d="M131.08,270.37l2.36.61a23.81,23.81,0,0,1-.91,3v8.24a10.52,10.52,0,0,0,3-2.42h-2.67V277.7H137v-1.09h-3.21v-5.76h8.91v5.76h-3.27v1.09h4.12v2.12h-2.79a8.23,8.23,0,0,0,3,2.18q-.24.36-.73,1.21a6.18,6.18,0,0,1-.49.85,9.61,9.61,0,0,1-3.09-3v3.76H137v-3.7a11.51,11.51,0,0,1-3.27,3.09,15.59,15.59,0,0,1-1.21-1.64v2.24H130.3v-6.24q-.18.24-.54.79t-.54.79a6.59,6.59,0,0,0-.06-.73,25,25,0,0,0-.3-2.67A24.51,24.51,0,0,0,131.08,270.37Zm9.33,4.12V273h-4.3v1.52Z"/><path class="cls-1" d="M150.2,270.37l2.12.42-.12.61h3.39v2l-1.09,2.36h1.09v.55a15.17,15.17,0,0,1-.85,5.39,4.73,4.73,0,0,0,3,.91v-.85h-2.18v-1.64h2.18v-.55H155.9v-1.64h1.88v-.54H156v-1.58h1.82v-.61h-2.18v-1.64h2.18V273H156V271.4h1.76v-1h2v1h2.61v2.18H163v1.64h-.61v2.18h-2.61v.54h2.67v1.64h-2.67v.55h2.85v1.64h-2.85v.91q2.42,0,3.21-.06l-.42,1.52a2.07,2.07,0,0,1-.12.48q-.85,0-2.85-.06H158a6.26,6.26,0,0,1-4.12-1.21,10.07,10.07,0,0,1-1.51,1.76c-.08-.16-.22-.48-.42-1s-.36-.67-.48-.91v1.64h-2v-6.3q-.36.67-.73,1.21-.12-1-.42-2.79a2.58,2.58,0,0,1-.06-.42A28.52,28.52,0,0,0,150.2,270.37Zm3.21,3h-1.27v-1.88a14.34,14.34,0,0,1-.73,2.36v3.82Zm-.49,5.09q.18.61.42,1.27a10.14,10.14,0,0,0,.3-2.06h-.06l-.36.73h-1.82v4.67a9.71,9.71,0,0,0,1.09-1.27,10.4,10.4,0,0,1-1-2.24ZM160.5,273h-.73v.55h.73Zm-.73,2.79h.73v-.61h-.73Z"/><path class="cls-1" d="M168,272.79v-1.7h5.88v-.73h2.3v.73h5.94v1.7h-5.94v.55h5.09V278h-.85q1,.91,2,1.88l-1.45.91h1.33v1.7h-2.91v.42q.06,1.76-1.94,1.82-.85.06-2.91.06a1.67,1.67,0,0,0-.06-.36,4.52,4.52,0,0,0-.36-1.27h2.12c.52,0,.79-.22.79-.67h-5.09l.67.48a4.08,4.08,0,0,1,.67.48l-1.82,1.33q-.48-.49-1.64-1.52.85.73-.18-.12l1-.67h-2.85v-1.7H177v-.67q-3,0-9.09.12l-.18-1.7h6.12V278h-5.09v-4.67h5.09v-.55Zm3.09,1.88v.48h2.79v-.48Zm0,1.45v.55h2.79v-.55Zm7.88-1.45h-2.79v.48H179Zm0,2v-.55h-2.79v.55Zm-.24,1.88s0-.1-.12-.18l-.12-.12.36-.24h-2.67v.54Zm1.33,1.52h-.67v.73h1.27A4.8,4.8,0,0,0,180,280.07Z"/><path class="cls-1" d="M199.77,275.82l1.21,1.82a5.16,5.16,0,0,1-.55.3q-.48.24-1.58.73a5.87,5.87,0,0,0,3,3.64,14,14,0,0,0-1.15,1.39,3.46,3.46,0,0,0-.42.48,8.4,8.4,0,0,1-3.33-4.67l-.42.18a10.34,10.34,0,0,1,.24,2.24q.06,2.85-2.48,2.79-1,.06-2.24.06-.18-.85-.42-1.7-1.7.67-3.76,1.33a16.35,16.35,0,0,0-.91-1.88A20.9,20.9,0,0,0,194,279.7l-.12-.36a30,30,0,0,1-5.94,2.42,20.06,20.06,0,0,0-.91-1.94,19,19,0,0,0,5.94-1.94l-.24-.3a27.75,27.75,0,0,1-4.54,1.39,13,13,0,0,0-.67-1.39l-.24-.48a20.44,20.44,0,0,0,5.51-1.21h-2.54v-1.7h8.3v1.7h-2.18l-.67.36c-.4.2-.71.36-.91.48a7.76,7.76,0,0,1,.85,1.15Q197.7,276.92,199.77,275.82Zm-6.61-5.45h2.42v1.15h5.76v3.82h-2.42v-1.82h-9.15v1.82H187.4v-3.82h5.76Zm1.27,11.21a16.41,16.41,0,0,1-2.48,1.33,2.13,2.13,0,0,0,.73,0h.48q1.39.06,1.27-1Z"/><path class="cls-1" d="M293.43,244a3.67,3.67,0,0,1,1.63,1.71,3.63,3.63,0,0,1-.65,2.93,2.52,2.52,0,0,1-2.52.57l-5,.16.08,29.56c0,4.72-2.44,8-6.92,8H263.54a2.79,2.79,0,0,1-2-1.47,3,3,0,0,1,.08-2.36,2.53,2.53,0,0,1,2.28-1.3l8.06-.08c1.3,0,1.79-.65,1.79-1.55l.08-30.86-50.57-.08c-1.79,0-2.12-1.87-1.55-4a2.7,2.7,0,0,1,1.71-1.14Zm-66.53-2.61a3.21,3.21,0,0,1-2-1.22,2.93,2.93,0,0,1,0-2.61,3.33,3.33,0,0,1,1.87-1.47h8.31a101.51,101.51,0,0,0,6.76-11.16H226a2.84,2.84,0,0,1-1.87-1.14,3.46,3.46,0,0,1,.08-2.85c1.14-1.63,3.09-1.22,4.72-1.22h15.88l2.69-5.21c4.8-.08,8.31.24,11.81-1.06a1.48,1.48,0,0,1,2.12.73l-.24,1.14c-.57,1.47-1.55,2.93-2.2,4.4H289.6A2.69,2.69,0,0,1,292,222c.08,1.55-.65,2.93-2.28,2.93l-11.32-.08-22.23.08c-.9,1.87-2.12,3.42-3.09,5.37,1.47-.16,2.85-1.06,4.4-1.22a43.23,43.23,0,0,1,15.64-1.87c5.13.49,5.46,5.94,8.06,9.12H290a3.19,3.19,0,0,1,1.71,1.55,3.42,3.42,0,0,1-.16,2.2,2.42,2.42,0,0,1-2,1.3H273.48a7.36,7.36,0,0,1-5-3c-1.71-2.28-2.2-6.6-6.35-5.94A49.6,49.6,0,0,0,250.51,235c-1.63,3.09-2.85,6.43-8.47,6.43Zm4.15,39.09c-1.22,0-3.18-1.55-3.18-3.09v-22a25.86,25.86,0,0,0,10.83-2.93c.73-.16,1.47.65,1.71,1.3v3.5a25.46,25.46,0,0,0,3.18-1.22c5.78-2,12.05-3.42,18.73-2.77,2.28.49,5.46,3,5.46,5.46l-.08,19.06a3.14,3.14,0,0,1-2.93,2.77Zm22-22.31c-4.48-.33-8.63,1.06-12.46,2.52v14.66h14.66v-12.7c0-1.38.16-2.69-.81-3.66Z"/><path class="cls-1" d="M329.51,244c-3.26,0-3.58-5.13-.24-5.13h44.87a2.57,2.57,0,1,1-.08,5.13H357.36l-.9,4.15h9c5,0,8.47,3.58,8.47,7.25v25.33c0,4-2.61,6.11-5.7,6.11H360c-3.42,0-3.66-5.21-.49-5.21h3.18V255.47c0-1.14-.81-2.2-2.52-2.52v26.3c0,.57-.41,1.22-1,1.22h-5a1.16,1.16,0,0,1-1.3-1.14V252.95a6.25,6.25,0,0,0-2.2.33v28.91c0,.81-.33,1.22-1.06,1.22h-5.21c-.65,0-1.3-.33-1.22-1v-27.2a5.15,5.15,0,0,0-2.77,1v29.32a1.32,1.32,0,0,1-1.14,1.3h-8.79a1.37,1.37,0,0,1-1.47-1.47v-7.74l-23.86,6.27c-3.5.9-4.56-4.4-1.22-5.29l6.35-1.71V250.34h-4.64c-3.09,0-3.18-5.29.16-5.29h4.48V224h-5.37c-3.09,0-3.09-5.21.08-5.21h21.58c3.18,0,3.18,5.21-.24,5.21h-3.75v21h4.64c3.26,0,3.58,5.29,0,5.29h-4.64v23.54l6.43-1.71V251.07a23.41,23.41,0,0,0,9.85-3.18.94.94,0,0,1,1.55.81v4l4.07-1.63a46.68,46.68,0,0,0,1.38-7.08Zm4.15-8.8c-2.52,0-4-1.63-4-4.32V219.4a21,21,0,0,0,9.77-2.85A1.1,1.1,0,0,1,341,217.6v12.7h4.64V216a25,25,0,0,0,9.77-3.09,1.54,1.54,0,0,1,2,1.63v15.8h4.72V219.64a24.86,24.86,0,0,0,9.2-2.44,1.4,1.4,0,0,1,2,1.14v12.38c0,2.77-.9,4.48-4,4.48Z"/><path class="cls-1" d="M424.55,223.3c0-2,2.12-4.07,3.91-4.8,4.07-.81,8.31-.08,12.62-.33l1.63-2.85a33,33,0,0,0,12.79-2,1.23,1.23,0,0,1,1,.81c0,1.55-.9,2.77-1.55,4.15a9,9,0,0,1-8,5l-10.34-.08-.08,15.55h19a2.72,2.72,0,0,1,1.79,2.36c0,1.63-.41,2.36-1.63,2.61H453.3v40.72c.24,1.3-.08,2.2-1.14,2.61l-9.77-.08c-.81.16-1.47-.65-1.55-1.47l.08-41.53H436.6V279.9a8.8,8.8,0,0,1-3.67,5.94,10.51,10.51,0,0,1-5.78,1.38l-12.95-.08c-3.75,0-5.29-1.55-5.78-4a145,145,0,0,1-2.12-17c.08-.49.57-.73,1-.9a40.82,40.82,0,0,0,8.55,1.79l2,.24a124.06,124.06,0,0,0,1.87,14.66h5V262.23a2.93,2.93,0,0,1-2.2,1.47l-37-.08c-.81-.08-1.22-.81-1.71-1.38a3.23,3.23,0,0,1,.08-2.61c1.14-1.87,3.5-1,5.38-1.22l-.08-29.81c-1.14.08-3.34.24-3.75-1.38a2.25,2.25,0,0,1-.08-2.36c.73-1.38,1.71-1.38,3.75-1.3l-.08-6.92a28.58,28.58,0,0,0,10.5-2.69,1.23,1.23,0,0,1,1.22,1v8.47l6.35.08V216a25.81,25.81,0,0,0,10.34-2.52,1.36,1.36,0,0,1,1.38.81v9c1.55.24,3.66-.33,4.4,1.47a3.11,3.11,0,0,1,0,2.69c-.9,1.63-2.77,1.06-4.32,1.22v29.4c1.79.24,4.48-.49,5.46,1.38Zm-39,64c-.65-.08-1.06-.65-1.47-1.06-.41-1.14-.16-3.42,1.14-3.66l2.77-.08a141.36,141.36,0,0,0,2-14.82c3.66-.41,7.25-.73,10.42-2.52A1.56,1.56,0,0,1,402,266.3c-.57,5.94-1.38,14.17-2.12,16.86-.33,2.52-2.12,4.15-5.54,4.15Zm15.31-58.72v5.54h6.27V228.6Zm0,10.34.08,6.52h6.19V239Zm6.27,11.4-6.27-.08v8h6.35Z"/><path class="cls-1" d="M205.71,222.18a.63.63,0,0,1-.46-.19.61.61,0,0,1-.19-.44v-4a.06.06,0,0,0-.07-.07h-1.07a.65.65,0,0,1-.65-.65v-.65a.65.65,0,0,1,.65-.65h4.46a.65.65,0,0,1,.65.65v.65a.65.65,0,0,1-.65.65h-1.09c-.06,0-.09,0-.09.07v4a.65.65,0,0,1-.63.64Zm4.85,0a.65.65,0,0,1-.64-.64v-5.41a.63.63,0,0,1,.19-.46.61.61,0,0,1,.45-.19h1.09a.91.91,0,0,1,.54.17,1,1,0,0,1,.35.43l.58,1.45.44,1.34a.05.05,0,0,0,.11,0l.45-1.34.54-1.43a1,1,0,0,1,.35-.44.91.91,0,0,1,.54-.17h1.13a.61.61,0,0,1,.45.19.63.63,0,0,1,.19.46v5.41a.65.65,0,0,1-.64.64H216a.65.65,0,0,1-.64-.64v-1.29l.22-2.47a0,0,0,0,0,0,0,.06.06,0,0,0-.05,0l-.93,2.8a.89.89,0,0,1-.33.44.87.87,0,0,1-.53.17h-.22A.87.87,0,0,1,213,221a.89.89,0,0,1-.33-.44l-.93-2.8a.06.06,0,0,0-.05,0,0,0,0,0,0,0,0l.24,2.47v1.29a.65.65,0,0,1-.64.64Z"/></g></g></svg>