<svg xmlns="http://www.w3.org/2000/svg" viewBox="0 0 1182.55 816.48"><defs><style>.cls-1{fill:#c7efea;}.cls-2{fill:#fff;}.cls-3{fill:#5f6604;}.cls-4{fill:#515103;}.cls-5{fill:#9ca82c;}.cls-6{fill:#b7d24f;}</style></defs><title>mt</title><g id="圖層_2" data-name="圖層 2"><g id="圖層_1-2" data-name="圖層 1"><path class="cls-1" d="M168.1,280a156.34,156.34,0,0,1,194.31-151.6A156.26,156.26,0,0,1,632.27,89,221.68,221.68,0,0,1,957,142.21a156.29,156.29,0,0,1,196.65,203.34H182.51A155.62,155.62,0,0,1,168.1,280Z"/><path class="cls-2" d="M780.7,266.8A117.37,117.37,0,0,0,634.82,153a117.31,117.31,0,0,0-202.6-29.6,166.43,166.43,0,0,0-243.77,40A117.34,117.34,0,0,0,40.82,316H769.89A116.84,116.84,0,0,0,780.7,266.8Z"/><path class="cls-3" d="M815.83,235.69,691,89.32,645.36,0S547.95,131.49,538.81,131.49s-67-47.14-67-47.14L365.3,225.77H277l-76.1,79.39L158.3,285.31,0,394.48V498.89l659.34-2.47c98.13-98.76,140.19-190.61,157-261.11Z"/><path class="cls-4" d="M1181.71,395.49l-24.94-58.08-57.84,12.41L983.26,243.14l-48.71,29.77-51.75-91.8-66.5,54.19c-16.78,70.5-58.84,162.36-157,261.11l522.37-2Z"/><path class="cls-5" d="M1181.71,345.27S581.71,291,2.32,816.35c14.3.13,1180.23,0,1180.23,0Z"/><path class="cls-6" d="M0,317.08s602.33-57.25,1181.71,499.4H0Z"/></g></g></svg>