<svg xmlns="http://www.w3.org/2000/svg" xmlns:xlink="http://www.w3.org/1999/xlink" viewBox="0 0 185.25 53.63"><defs><style>.cls-1{fill:url(#未命名漸層_12);}.cls-2{fill:#fff;}</style><linearGradient id="未命名漸層_12" x1="92.63" y1="0.81" x2="92.63" y2="52.81" gradientUnits="userSpaceOnUse"><stop offset="0" stop-color="#ffc400"/><stop offset="1" stop-color="#ff8300"/></linearGradient></defs><title>測驗開始</title><g id="圖層_2" data-name="圖層 2"><g id="圖層_1-2" data-name="圖層 1"><rect class="cls-1" x="0.81" y="0.81" width="183.63" height="52" rx="5.69" ry="5.69"/><path class="cls-2" d="M178.75,1.62a4.88,4.88,0,0,1,4.87,4.88V47.12A4.87,4.87,0,0,1,178.75,52H6.5a4.88,4.88,0,0,1-4.88-4.88V6.5A4.89,4.89,0,0,1,6.5,1.62H178.75m0-1.62H6.5A6.51,6.51,0,0,0,0,6.5V47.12a6.51,6.51,0,0,0,6.5,6.5H178.75a6.51,6.51,0,0,0,6.5-6.5V6.5a6.51,6.51,0,0,0-6.5-6.5Z"/><path class="cls-2" d="M35.27,23.07a1.79,1.79,0,0,1,.81,1.47,1.76,1.76,0,0,1-.36,1.09,1.7,1.7,0,0,1-1.21.71l-.31,0A1.85,1.85,0,0,1,33.11,26c-.29-.18-.59-.36-.91-.53a1.57,1.57,0,0,1-.77-1,1.49,1.49,0,0,1-.05-.36,1.41,1.41,0,0,1,.28-.83,2.19,2.19,0,0,1,1.22-.84,2.16,2.16,0,0,1,.56-.08,2.07,2.07,0,0,1,.86.2C34.64,22.74,35,22.9,35.27,23.07Zm-1.55,7.56a1.45,1.45,0,0,1,1.37-1,1.39,1.39,0,0,1,.74.23,2.35,2.35,0,0,1,1,1.19,2.32,2.32,0,0,1,.15.81,2.16,2.16,0,0,1-.12.71q-.8,2.45-1.65,4.8a1.62,1.62,0,0,1-1,1,1.77,1.77,0,0,1-.58.1,1.79,1.79,0,0,1-.84-.2,2,2,0,0,1-1-1.19,2.25,2.25,0,0,1-.12-.71,2.21,2.21,0,0,1,.17-.84C32.49,34,33.13,32.34,33.72,30.63Zm2.56-14.37a1.51,1.51,0,0,1,.79,1.17,1.55,1.55,0,0,1,0,.31,1.69,1.69,0,0,1-.39,1.09,1.67,1.67,0,0,1-1.19.71h-.28a1.91,1.91,0,0,1-1.12-.36l-1-.61a1.51,1.51,0,0,1-.74-1,1.41,1.41,0,0,1,0-.35,1.27,1.27,0,0,1,.31-.84,2.1,2.1,0,0,1,1.19-.81,2.16,2.16,0,0,1,.56-.08,2.28,2.28,0,0,1,.89.2ZM37.71,34.8a2.36,2.36,0,0,1,1.06-1,2,2,0,0,1,.86-.21,2.14,2.14,0,0,1,.54.08,1.38,1.38,0,0,1,1,.81,1.42,1.42,0,0,1,.16.61,1.27,1.27,0,0,1-.18.64,18.27,18.27,0,0,1-1.5,2.49,1.73,1.73,0,0,1-1.17.68l-.28,0a1.85,1.85,0,0,1-1.09-.36,1.41,1.41,0,0,1-.66-1,1.58,1.58,0,0,1,0-.28,1.56,1.56,0,0,1,.33-.94A13.3,13.3,0,0,0,37.71,34.8Zm8.35-2.36a.69.69,0,0,1-.2.48.73.73,0,0,1-.51.2,0,0,0,0,0,0,0v.05q.84,1.11,1.53,2.16a1.79,1.79,0,0,1,.25.89,2.37,2.37,0,0,1-.05.43,1.87,1.87,0,0,1-.84,1.09,1.54,1.54,0,0,1-.79.23,1.51,1.51,0,0,1-.48-.08,1.73,1.73,0,0,1-1-.81l-.43-.76a2.11,2.11,0,0,1-.33-1.12,2.94,2.94,0,0,1,0-.51,2,2,0,0,1,1-1.32l.28-.15s0,0,0-.08,0-.05-.09-.05H40.17A2.22,2.22,0,0,1,38,30.91V18a2.09,2.09,0,0,1,.65-1.56,2.13,2.13,0,0,1,1.56-.65h3.68A2.22,2.22,0,0,1,46.06,18ZM42.5,20.63c.17,0,.26-.08.26-.25V19.26A.23.23,0,0,0,42.5,19H41.36c-.17,0-.25.09-.25.26v1.12a.22.22,0,0,0,.25.25Zm0,4.62c.17,0,.26-.08.26-.25V23.88c0-.17-.09-.25-.26-.25H41.36a.22.22,0,0,0-.25.25V25a.22.22,0,0,0,.25.25Zm0,4.62c.17,0,.26-.08.26-.25V28.5c0-.17-.09-.25-.26-.25H41.36a.22.22,0,0,0-.25.25v1.12a.22.22,0,0,0,.25.25Zm5-11.94a1.51,1.51,0,0,1,1.13-.47,1.55,1.55,0,0,1,1.14.47,1.52,1.52,0,0,1,.48,1.13V31a1.57,1.57,0,0,1-.48,1.16,1.59,1.59,0,0,1-1.14.47A1.61,1.61,0,0,1,47,31v-12A1.51,1.51,0,0,1,47.47,17.93Zm3.67-1.41a1.68,1.68,0,0,1,.5-1.22,1.71,1.71,0,0,1,2.92,1.22V35.38a6.89,6.89,0,0,1-.27,2.19,2.31,2.31,0,0,1-1,1.19,6.08,6.08,0,0,1-2.56.66h-.18A1.92,1.92,0,0,1,49.28,39a2.53,2.53,0,0,1-.86-1.32,1.35,1.35,0,0,1-.08-.43,1.29,1.29,0,0,1,.26-.76,1.19,1.19,0,0,1,1-.53h1A.55.55,0,0,0,51,35.8a.59.59,0,0,0,.12-.42Z"/><path class="cls-2" d="M60,37.13a.85.85,0,0,1-.58.54,1.06,1.06,0,0,1-.31,0,1.33,1.33,0,0,1-.48-.1,1.06,1.06,0,0,1-.51-.61,1.14,1.14,0,0,1-.07-.38,1.07,1.07,0,0,1,.1-.44,15.07,15.07,0,0,0,.68-3.91.76.76,0,0,1,.32-.64.85.85,0,0,1,.7-.17,1.18,1.18,0,0,1,.69.41,1.11,1.11,0,0,1,.22.68A12.62,12.62,0,0,1,60,37.13ZM77.19,33a1.81,1.81,0,0,1,.59-1.09,1.54,1.54,0,0,1,1-.38h.07A1.38,1.38,0,0,1,80,32a1.4,1.4,0,0,1,.33.89v.23c-.07.36-.14.7-.2,1a.45.45,0,0,0,.12.43c.68.71,1.26,1.36,1.73,2a1.4,1.4,0,0,1,.31.87,1,1,0,0,1,0,.23,1.46,1.46,0,0,1-.58,1,1.42,1.42,0,0,1-.82.28,1.07,1.07,0,0,1-.25,0,1.45,1.45,0,0,1-.94-.58c-.17-.24-.36-.49-.58-.77a.16.16,0,0,0-.16-.06.24.24,0,0,0-.15.09c-.12.19-.24.37-.38.56a1.76,1.76,0,0,1-1.37.63l-.13,0A2.64,2.64,0,0,1,75.24,38l-.18-.16a.15.15,0,0,0-.23,0,1.12,1.12,0,0,1-.81.36.28.28,0,0,1-.13,0,1.19,1.19,0,0,1-.89-.48l-.33-.43a.19.19,0,0,0-.28,0c-.15.27-.32.53-.5.79a1.76,1.76,0,0,1-1.35.63h-.15A2.73,2.73,0,0,1,68.76,38l-.33-.28a.17.17,0,0,0-.15,0,.17.17,0,0,0-.1.1,2.2,2.2,0,0,1-1.85,1.71,4.27,4.27,0,0,1-.77.1h-.1a1.47,1.47,0,0,1-1-.36,1.93,1.93,0,0,1-.61-1,1.07,1.07,0,0,1,0-.25.91.91,0,0,1,.21-.59.94.94,0,0,1,.76-.43.61.61,0,0,0,.5-.33,5.36,5.36,0,0,0,.28-1.8s0,0,0,0,0,0,0,0a.44.44,0,0,1-.4,0,.48.48,0,0,1-.23-.36,16.35,16.35,0,0,0-.59-2.13.66.66,0,0,1,.06-.51.59.59,0,0,1,.38-.33.75.75,0,0,1,.53.05.82.82,0,0,1,.38.38v.05l0,0s0,0,0,0l0-1.24a.23.23,0,0,0-.26-.26H61.25a2.13,2.13,0,0,1-1.58-.64A2.17,2.17,0,0,1,59,28.15V17.89a2.15,2.15,0,0,1,.63-1.56,2.1,2.1,0,0,1,1.58-.65h5.66a1.37,1.37,0,0,1,1,.43,1.47,1.47,0,0,1,0,2.06,1.37,1.37,0,0,1-1,.43H66.2c-.17,0-.26.08-.26.25v.69a.18.18,0,0,0,.21.2h.4a1.32,1.32,0,0,1,1,.41,1.31,1.31,0,0,1,.4,1,1.33,1.33,0,0,1-.4,1,1.31,1.31,0,0,1-1,.4h-.4a.19.19,0,0,0-.21.21v.71c0,.15.07.23.21.23h.51a1.34,1.34,0,0,1,1,.39,1.34,1.34,0,0,1,0,1.93,1.34,1.34,0,0,1-1,.39h-.51c-.14,0-.21.08-.21.23v.71a.23.23,0,0,0,.26.26h.28A2.08,2.08,0,0,1,68,28.2a2,2,0,0,1,.63,1.49c0,1.17,0,2.76-.13,4.75,0,1.14-.11,2-.2,2.64a.1.1,0,0,0,0,.12.11.11,0,0,0,.11,0A6.19,6.19,0,0,0,70.74,33a1.82,1.82,0,0,1,.59-1.07,1.55,1.55,0,0,1,1-.38h.1a1.42,1.42,0,0,1,1,.51,1.27,1.27,0,0,1,.33.86,1,1,0,0,1,0,.23c0,.26-.08.52-.13.79a.48.48,0,0,0,.13.43c.81.91,1.38,1.58,1.7,2,.1.15.2.16.31,0A6.93,6.93,0,0,0,77.19,33ZM61,32.61a.72.72,0,0,1,.18-.55.66.66,0,0,1,.5-.28.76.76,0,0,1,.56.16.7.7,0,0,1,.28.52c.07.81.1,1.66.1,2.54v.74a.89.89,0,0,1-.06.31.62.62,0,0,1-.18.28.77.77,0,0,1-.27.19.92.92,0,0,1-.33.11.59.59,0,0,1-.53-.18.64.64,0,0,1-.2-.53c0-.41,0-.82,0-1.22C61,34,61,33.33,61,32.61Zm2.16-13.76c0-.17-.09-.25-.26-.25h-.68c-.17,0-.26.08-.26.25v.64c0,.17.09.25.26.25h.68c.17,0,.26-.08.26-.25Zm-.26,4.78a.23.23,0,0,0,.26-.26v-.63a.23.23,0,0,0-.26-.26h-.68a.23.23,0,0,0-.26.26v.63a.23.23,0,0,0,.26.26Zm-.68,2.71a.23.23,0,0,0-.26.26v.68a.23.23,0,0,0,.26.26h.68a.23.23,0,0,0,.26-.26V26.6a.23.23,0,0,0-.26-.26Zm.5,6.1a.63.63,0,0,1,.11-.54.66.66,0,0,1,.45-.3.84.84,0,0,1,.56.14.68.68,0,0,1,.31.47A19.28,19.28,0,0,1,64.55,35a.81.81,0,0,1-.18.58.8.8,0,0,1-.53.3.62.62,0,0,1-.54-.14.69.69,0,0,1-.25-.49A20.93,20.93,0,0,0,62.69,32.44ZM73.76,23.7a1.45,1.45,0,0,1-1.11-.47,1.54,1.54,0,0,1-.46-1.13s0,0-.06-.05-.08,0-.09,0l-.81.64a1.38,1.38,0,0,1-.79.28,1.48,1.48,0,0,1-.46-.08A1.62,1.62,0,0,1,69,22a1.77,1.77,0,0,1-.23-.87,2.8,2.8,0,0,1,0-.48,2,2,0,0,1,.77-1.12,14.13,14.13,0,0,0,3.19-3.3,3.06,3.06,0,0,1,2.57-1.42A3.29,3.29,0,0,1,78,16.19a14.44,14.44,0,0,0,3.36,3.17,1.89,1.89,0,0,1,.83,1.14,2.22,2.22,0,0,1,.06.51,1.9,1.9,0,0,1-.23.89,1.87,1.87,0,0,1-1.12.91,1.8,1.8,0,0,1-.46.05,1.57,1.57,0,0,1-.91-.3L79,22.13a.06.06,0,0,0-.08,0s0,0,0,.07a1.52,1.52,0,0,1-1.5,1.5Zm-2.2,7.44a2.2,2.2,0,0,1-2.21-2.21V26.75A2.12,2.12,0,0,1,70,25.19a2.17,2.17,0,0,1,1.57-.65H73a2.12,2.12,0,0,1,1.57.65,2.16,2.16,0,0,1,.64,1.56v2.18a2.16,2.16,0,0,1-.64,1.56,2.08,2.08,0,0,1-1.57.65Zm.4-4.29a.22.22,0,0,0-.25.25v1.45c0,.17.08.26.25.26h.46c.17,0,.25-.09.25-.26V27.1a.22.22,0,0,0-.25-.25Zm1.45-6.07a.13.13,0,0,0,0,.12.11.11,0,0,0,.11.06h4a.09.09,0,0,0,.1-.06.11.11,0,0,0,0-.12,16.25,16.25,0,0,1-2-2.44.15.15,0,0,0-.14-.07.16.16,0,0,0-.14.07A15.16,15.16,0,0,1,73.41,20.78Zm4.7,10.36a2.2,2.2,0,0,1-2.21-2.21V26.75a2.12,2.12,0,0,1,.64-1.56,2.17,2.17,0,0,1,1.57-.65h1.65A2.22,2.22,0,0,1,82,26.75v2.18a2.13,2.13,0,0,1-.65,1.56,2.09,2.09,0,0,1-1.56.65Zm.43-4.29a.23.23,0,0,0-.26.25v1.45a.23.23,0,0,0,.26.26h.61c.17,0,.25-.09.25-.26V27.1a.22.22,0,0,0-.25-.25Z"/><path class="cls-2" d="M97,23a2.22,2.22,0,0,1-2.21,2.21H90.5a.22.22,0,0,0-.25.25V37.67a1.84,1.84,0,0,1-1.84,1.83A1.77,1.77,0,0,1,87.1,39a1.74,1.74,0,0,1-.53-1.29V17.94a2.12,2.12,0,0,1,.64-1.56,2.17,2.17,0,0,1,1.57-.65h6a2.13,2.13,0,0,1,1.56.65A2.09,2.09,0,0,1,97,17.94Zm-3.53-4.42a.22.22,0,0,0-.25-.25H90.5a.22.22,0,0,0-.25.25V19c0,.17.08.26.25.26h2.67c.17,0,.25-.09.25-.26Zm-3.17,3.74a.22.22,0,0,0,.25.25h2.67a.22.22,0,0,0,.25-.25V21.9a.22.22,0,0,0-.25-.25H90.5a.22.22,0,0,0-.25.25Zm13.54,8.92a1.52,1.52,0,0,1,0,2.16,1.43,1.43,0,0,1-1.08.44H102a.23.23,0,0,0-.26.26v3.25a1.62,1.62,0,0,1-.48,1.17,1.66,1.66,0,0,1-2.82-1.17V34.14c0-.17-.08-.26-.25-.26H96.85a.3.3,0,0,0-.31.26,8.86,8.86,0,0,1-2,4.34,1.39,1.39,0,0,1-1,.46H93.4a2,2,0,0,1-1.17-.54,1.2,1.2,0,0,1-.46-1,1.55,1.55,0,0,1,.38-1,5.82,5.82,0,0,0,1.14-2.26.14.14,0,0,0,0-.15.21.21,0,0,0-.14-.08h-.49a1.43,1.43,0,0,1-1.07-.44,1.52,1.52,0,0,1,1.07-2.6h.61c.17,0,.26-.08.26-.23v-1a.19.19,0,0,0-.21-.21h-.38a1.42,1.42,0,0,1-1-.43,1.39,1.39,0,0,1-.43-1,1.47,1.47,0,0,1,1.47-1.47h9.5a1.4,1.4,0,0,1,1,.43,1.42,1.42,0,0,1,.43,1,1.39,1.39,0,0,1-.43,1,1.4,1.4,0,0,1-1,.43H102a.21.21,0,0,0-.23.23v1a.23.23,0,0,0,.26.26h.73A1.47,1.47,0,0,1,103.79,31.28Zm-7.09-.7c0,.17.08.26.25.26h1.22c.17,0,.25-.09.25-.26v-1c0-.17-.08-.26-.25-.26H97c-.17,0-.25.09-.25.26Zm10-14.85a2.2,2.2,0,0,1,2.2,2.21V35.25a7.07,7.07,0,0,1-.27,2.21,2.37,2.37,0,0,1-1,1.25,6,6,0,0,1-2.48.66h-.18a2,2,0,0,1-1.3-.48,3,3,0,0,1-.89-1.4,1.92,1.92,0,0,1,0-.41,1.44,1.44,0,0,1,.26-.81,1.22,1.22,0,0,1,1-.53h.68a.51.51,0,0,0,.42-.13.57.57,0,0,0,.12-.41V25.58c0-.17-.09-.25-.26-.25h-4.39a2.22,2.22,0,0,1-2.21-2.21V17.94a2.22,2.22,0,0,1,2.21-2.21Zm-1.5,2.89a.23.23,0,0,0-.26-.25h-2.76a.23.23,0,0,0-.26.25V19a.23.23,0,0,0,.26.26h2.76a.23.23,0,0,0,.26-.26Zm-3.28,3.81a.23.23,0,0,0,.26.26h2.76a.23.23,0,0,0,.26-.26V21.9c0-.17-.09-.25-.26-.25h-2.76c-.17,0-.26.08-.26.25Z"/><path class="cls-2" d="M125.6,26.6l-.18,0a2.24,2.24,0,0,1-1.45-.53,2.2,2.2,0,0,1-.78-1.52l-.08-.61a0,0,0,0,0,0,0s0,0,0,0a32.21,32.21,0,0,1-1.65,7.59.36.36,0,0,0,.1.4c.47.39.89.76,1.24,1.1a2,2,0,0,1,.64,1.52,2.3,2.3,0,0,1-.48,1.42,1.47,1.47,0,0,1-1.15.59h-.05a1.54,1.54,0,0,1-1.17-.54l-.71-.71c-.11-.12-.22-.1-.3.05a14.32,14.32,0,0,1-2.87,3.15,1.55,1.55,0,0,1-1,.36,1.13,1.13,0,0,1-.36-.06,2,2,0,0,1-1.21-.78,1.77,1.77,0,0,1-.33-1,1.27,1.27,0,0,1,0-.28,1.9,1.9,0,0,1,.66-1.19,10.51,10.51,0,0,0,2.26-2.62.25.25,0,0,0,0-.38,2.87,2.87,0,0,0-.33-.26A4.08,4.08,0,0,1,116,32s-.06,0-.08,0a.58.58,0,0,1-.33.4.52.52,0,0,1-.5,0l-.87-.46a1.92,1.92,0,0,1-1-1.06A2.12,2.12,0,0,1,113,30a3.41,3.41,0,0,1,0-.55c.42-1.63.89-3.59,1.4-5.9,0-.11,0-.17-.13-.17a1.43,1.43,0,0,1-1.45-1.45v-.28a1.74,1.74,0,0,1,1.73-1.75H115a.27.27,0,0,0,.28-.23c.22-1.13.41-2.17.56-3.1a1.82,1.82,0,0,1,.73-1.19A1.79,1.79,0,0,1,117.7,15h.2a1.58,1.58,0,0,1,1.17.66,1.56,1.56,0,0,1,.31.94,2.07,2.07,0,0,1,0,.35c-.2,1-.4,1.89-.58,2.72a.23.23,0,0,0,0,.15.16.16,0,0,0,.15.08h1a16.71,16.71,0,0,1,2.26.1,1.16,1.16,0,0,1,.76.46,1.17,1.17,0,0,1,.28.76c0,.22,0,.79-.15,1.7a.28.28,0,0,0,.06.18.22.22,0,0,0,.17.07l1.52-.07a.35.35,0,0,0,.33-.26,52.1,52.1,0,0,0,1.63-5.94,2.15,2.15,0,0,1,.91-1.37,2,2,0,0,1,1.17-.38l.41,0a1.75,1.75,0,0,1,1.26.88,1.77,1.77,0,0,1,.28.94,1.83,1.83,0,0,1-.1.59c-.61,1.84-1.22,3.54-1.85,5.08a.16.16,0,0,0,0,.15.14.14,0,0,0,.16.05l3-.18a.16.16,0,0,0,.13-.23q-.18-.33-.36-.63a1.45,1.45,0,0,1-.22-.79,1.67,1.67,0,0,1,.05-.43,1.43,1.43,0,0,1,.76-.94,1.93,1.93,0,0,1,.86-.2,1.86,1.86,0,0,1,.48,0,1.77,1.77,0,0,1,1.1.78,33.09,33.09,0,0,1,2.26,4,2,2,0,0,1,.15.76,2,2,0,0,1-.13.71,2.08,2.08,0,0,1-1,1.12L136,27a1.39,1.39,0,0,1-.63.15,1.46,1.46,0,0,1-.53-.1,1.54,1.54,0,0,1-.84-.86.27.27,0,0,0-.26-.18C131.39,26.17,128.66,26.38,125.6,26.6Zm-6-3a.29.29,0,0,0-.07-.18.2.2,0,0,0-.16-.07h-1.15a.33.33,0,0,0-.33.25c-.4,1.86-.75,3.39-1,4.57a.33.33,0,0,0,.16.41l1.11.76a.2.2,0,0,0,.17,0,.13.13,0,0,0,.11-.12A28.66,28.66,0,0,0,119.61,23.6Zm6.83,15.9a1.71,1.71,0,0,1-1.26-.53,1.68,1.68,0,0,1-.52-1.25V30.61a2.09,2.09,0,0,1,.65-1.56,2.13,2.13,0,0,1,1.56-.65h7.34a2.16,2.16,0,0,1,1.56.65,2.12,2.12,0,0,1,.64,1.56v6.9a1.81,1.81,0,0,1-.55,1.34,1.86,1.86,0,0,1-1.32.54h-1.15a.72.72,0,0,1-.73-.73c0-.07,0-.1-.08-.1h-4.27a.09.09,0,0,0-.1.1.81.81,0,0,1-.24.59.82.82,0,0,1-.59.25Zm6.22-7.44a.23.23,0,0,0-.26-.26h-3.93a.23.23,0,0,0-.26.26V34.9c0,.17.09.25.26.25h3.93c.17,0,.26-.08.26-.25Z"/><path class="cls-2" d="M144.42,37.39a2.59,2.59,0,0,1-2-.83,3.07,3.07,0,0,1,0-4.09,2.76,2.76,0,0,1,3.93,0,3.07,3.07,0,0,1,0,4.09A2.57,2.57,0,0,1,144.42,37.39Zm1.1-7.8a1.56,1.56,0,0,1-1.1.43,1.5,1.5,0,0,1-1.09-.43,1.53,1.53,0,0,1-.51-1.06l-.56-7.32-.08-1.88a2.12,2.12,0,0,1,.6-1.56,2,2,0,0,1,1.54-.64h.22a2,2,0,0,1,1.54.64,2.12,2.12,0,0,1,.6,1.56l-.08,1.88L146,28.53A1.54,1.54,0,0,1,145.52,29.59Z"/><path class="cls-2" d="M156,37.39a2.57,2.57,0,0,1-2-.83,3.07,3.07,0,0,1,0-4.09,2.76,2.76,0,0,1,3.93,0,3.07,3.07,0,0,1,0,4.09A2.57,2.57,0,0,1,156,37.39Zm1.1-7.8A1.56,1.56,0,0,1,156,30a1.54,1.54,0,0,1-1.1-.43,1.56,1.56,0,0,1-.5-1.06l-.56-7.32-.08-1.88a2.08,2.08,0,0,1,.6-1.56,2,2,0,0,1,1.53-.64h.23a2.06,2.06,0,0,1,1.54.64,2.16,2.16,0,0,1,.6,1.56l-.08,1.88-.56,7.32A1.54,1.54,0,0,1,157.13,29.59Z"/></g></g></svg>