<?xml version="1.0" encoding="utf-8"?>
<!-- Generator: Adobe Illustrator 21.1.0, SVG Export Plug-In . SVG Version: 6.00 Build 0)  -->
<svg version="1.1" id="圖層_1" xmlns="http://www.w3.org/2000/svg" xmlns:xlink="http://www.w3.org/1999/xlink" x="0px" y="0px"
	 viewBox="0 0 1166 178" style="enable-background:new 0 0 1166 178;" xml:space="preserve">
<style type="text/css">
	.st0{fill:#90B50B;}
</style>
<title>tree</title>
<g id="圖層_2">
	<g id="圖層_1-2">
		
			<image style="overflow:visible;opacity:0.2;enable-background:new    ;" width="1238" height="184" xlink:href="87AC8BE8E5E6573F.png"  transform="matrix(1 0 0 1 -29 0)">
		</image>
		<path class="st0" d="M218.2,178c0.5-11.7-3.3-23.1-10.6-32.3l-8.3-7.8c-6-4.3-13.1-6.9-20.4-7.6l-11,0.6c-2.5,0.5-5,1.3-7.4,2.3
			c-1.6-3.4-3.6-6.6-6-9.6l-8.4-7.9c-6.1-4.4-13.2-7-20.7-7.7l-11.2,0.7c-3,0.6-5.8,1.5-8.6,2.8c-4.7-15.7-17.7-29-33.6-29
			c-20.9,0-39.5,14.4-41.2,38c-0.2,3.5-0.1,6.9,0.6,10.4l-5.5-1.2c-5.8-0.5-11.7,0.7-16.9,3.5c-2.8,1.9-5.8,3.5-8.2,6
			c-2,2.4-4,4.8-5.9,7.2c-3.2,5.2-5.1,11.1-5.5,17.1c-0.3,4.9,0.3,9.7,1.8,14.4H218.2z"/>
		<path class="st0" d="M323.8,178c0.3-8.1-2.3-16-7.3-22.3l-5.8-5.4c-4.1-3-9-4.8-14.1-5.3l-7.6,0.4c-1.8,0.4-3.5,0.9-5.1,1.6
			c-1.1-2.4-2.5-4.6-4.2-6.6l-5.8-5.4c-4.2-3-9.2-4.9-14.3-5.3l-7.7,0.5c-2.1,0.4-4.1,1.1-6,1.9c-3.2-10.9-12.2-20.1-23.2-20.1
			c-14.5,0-27.3,10-28.5,26.3c-0.2,2.4,0,4.8,0.4,7.2l-3.8-0.8c-4-0.3-8.1,0.5-11.6,2.4c-1.9,1.3-4,2.4-5.6,4.1
			c-1.4,1.7-2.7,3.3-4.1,5c-2.2,3.6-3.5,7.7-3.8,11.9c-0.2,3.4,0.2,6.8,1.2,10H323.8z"/>
		<path class="st0" d="M837.8,178c-0.8-18,5-35.7,16.3-49.8l12.8-12c9.3-6.7,20.1-10.7,31.5-11.7l17,1c3.9,0.8,7.7,2,11.4,3.5
			c2.5-5.3,5.6-10.2,9.3-14.7l13-12.2c9.4-6.7,20.4-10.8,31.9-11.8l17.2,1c4.6,0.9,9,2.4,13.3,4.3c7.2-24.2,27.3-44.7,51.8-44.7
			c32.3,0,60.9,22.2,63.5,58.6c0.4,5.4,0,10.7-0.9,16l8.4-1.9c9-0.7,18,1.1,26,5.4c4.3,2.9,9,5.4,12.6,9.2c3.1,3.7,6.1,7.4,9.1,11.2
			c4.9,8,7.8,17.1,8.5,26.4c0.5,7.5-0.4,15.1-2.7,22.2L837.8,178z"/>
		<path class="st0" d="M675,178c-0.5-12.5,3.5-24.7,11.3-34.4l8.9-8.3c6.4-4.6,13.9-7.4,21.8-8.1l11.8,0.7c2.7,0.6,5.4,1.4,7.9,2.4
			c1.7-3.6,3.9-7.1,6.4-10.2l9-8.4c6.5-4.7,14.1-7.5,22.1-8.2l11.9,0.7c3.2,0.7,6.2,1.6,9.2,2.9c5-16.7,18.9-30.9,35.9-30.9
			c22.3,0,42.2,15.3,43.9,40.6c0.2,3.7,0,7.4-0.7,11l5.8-1.3c6.2-0.5,12.5,0.8,18,3.7c3,2,6.2,3.7,8.7,6.4c2.1,2.5,4.2,5.1,6.3,7.7
			c3.4,5.5,5.4,11.8,5.9,18.3c0.4,5.2-0.3,10.4-1.8,15.4H675z"/>
		<path class="st0" d="M749.8,178c0.6-14.8-4.1-29.4-13.4-40.9l-10.5-9.9c-7.6-5.5-16.6-8.8-25.9-9.6l-14,0.8
			c-3.2,0.7-6.4,1.6-9.4,2.9c-2-4.3-4.6-8.4-7.6-12.1l-10.7-10c-7.7-5.6-16.8-8.9-26.3-9.7l-14.2,0.8c-3.8,0.8-7.4,1.9-10.9,3.5
			c-6-19.9-22.5-36.8-42.7-36.8c-26.5,0-50.1,18.2-52.2,48.2c-0.3,4.4,0,8.8,0.8,13.1l-7-1.5c-7.4-0.6-14.8,0.9-21.4,4.4
			c-3.5,2.4-7.4,4.4-10.4,7.6c-2.5,3-5,6.1-7.5,9.2c-4.1,6.6-6.5,14-7,21.7c-0.4,6.2,0.4,12.4,2.3,18.3H749.8z"/>
		<path class="st0" d="M234,178c-0.5-12.5,3.5-24.7,11.3-34.4l8.9-8.3c6.4-4.6,13.9-7.4,21.8-8.1l11.8,0.7c2.7,0.6,5.4,1.4,7.9,2.4
			c1.7-3.6,3.9-7.1,6.4-10.2l9-8.4c6.5-4.7,14.1-7.5,22.1-8.2l11.9,0.7c3.2,0.7,6.2,1.6,9.2,2.9c5-16.7,18.9-30.9,35.9-30.9
			c22.3,0,42.1,15.3,43.9,40.6c0.2,3.7,0,7.4-0.6,11l5.9-1.3c6.2-0.5,12.5,0.8,18,3.7c3,2,6.2,3.7,8.7,6.4c2.1,2.5,4.2,5.1,6.3,7.7
			c3.4,5.5,5.4,11.8,5.9,18.3c0.4,5.2-0.3,10.4-1.9,15.4H234z"/>
	</g>
</g>
</svg>
